# xmcd CD database file
#
# Track frame offsets:
#	182
#	11027
#	22420
#	37495
#	51040
#	64815
#	75585
#	91095
#	104160
#	117612
#	133105
#	146642
#	159970
#	174245
#	187560
#	200882
#
# Disc length: 2857 seconds
#
# Revision: 0
# Processed by: cddbd v1.5.2PL0 Copyright (c) Steve Scherf et al.
# Submitted via: CDex 1.70beta2
#
DISCID=e60b2710
DTITLE=Jelly Roll Morton - Jazz Tribune (1929-1930)
DYEAR=1995
DGENRE=Jazz
TTITLE0=Jersey Joe
TTITLE1=Jersey Joe
TTITLE2=Mississippi Mildred
TTITLE3=Mississippi Mildred
TTITLE4=Mint Julep
TTITLE5=You Oughta See My Girl
TTITLE6=Futuristic Blues
TTITLE7=Keep Your Business To Yourself
TTITLE8=She's Got What I Need
TTITLE9=I Hate A Man Like You
TTITLE10=Don't Tell Me Nothin' Bout My Man
TTITLE11=Smilin' The Blues Away
TTITLE12=Turtle Twist
TTITLE13=My Little Dixie Home
TTITLE14=That's Like It Ought To Be
TTITLE15=Each Day
EXTD=YEAR: 1995
EXTT0=
EXTT1=
EXTT2=
EXTT3=
EXTT4=
EXTT5=
EXTT6=
EXTT7=
EXTT8=
EXTT9=
EXTT10=
EXTT11=
EXTT12=
EXTT13=
EXTT14=
EXTT15=
PLAYORDER=
